<svg id="Layer_1" data-name="Layer 1" xmlns="http://www.w3.org/2000/svg" xmlns:xlink="http://www.w3.org/1999/xlink" viewBox="0 0 50 45.17"><defs><style>.cls-1{fill:none;}.cls-2{clip-path:url(#clip-path);}.cls-3{clip-path:url(#clip-path-2);}.cls-4{opacity:0.8;}.cls-5{clip-path:url(#clip-path-3);}.cls-6{opacity:0.2;}.cls-7{clip-path:url(#clip-path-4);}.cls-8{fill:#c6e1a6;}.cls-9{clip-path:url(#clip-path-5);}.cls-10{clip-path:url(#clip-path-6);}.cls-11{clip-path:url(#clip-path-7);}.cls-12{clip-path:url(#clip-path-8);}</style><clipPath id="clip-path"><rect class="cls-1" width="50" height="45.17"/></clipPath><clipPath id="clip-path-2"><rect class="cls-1" width="50" height="45.17"/></clipPath><clipPath id="clip-path-3"><rect class="cls-1" x="-2.9" y="-2.83" width="59.33" height="50.37"/></clipPath><clipPath id="clip-path-4"><rect class="cls-1" x="-0.36" y="11.8" width="31.11" height="30.6"/></clipPath><clipPath id="clip-path-5"><rect class="cls-1" x="15.58" y="0.46" width="38.45" height="46.57"/></clipPath><clipPath id="clip-path-6"><rect class="cls-1" x="-2.58" y="-2.68" width="58.75" height="50.32"/></clipPath><clipPath id="clip-path-7"><rect class="cls-1" x="11.77" y="9.72" width="29.72" height="29.08"/></clipPath><clipPath id="clip-path-8"><rect class="cls-1" x="11.38" y="4.92" width="38.49" height="26.75"/></clipPath></defs><title>Background</title><g class="cls-2"><g class="cls-3"><g class="cls-4"><g class="cls-5"><g class="cls-6"><g class="cls-7"><path class="cls-8" d="M6.66,17.12s-13.49,3.41-2.06,13S23.57,42,28.17,42.36s2.22-33.65-8.49-30-13,4.76-13,4.76"/></g></g><g class="cls-6"><g class="cls-9"><path class="cls-8" d="M40.88,5.89c-6.91-.22-12.06-0.12-17.8,15S17.69,36.5,20.4,39.22,42,35.76,45.88,28s3.48-13.59,4-15.2c0.76-2.35-2.1-6.73-9-6.95"/></g></g><g class="cls-6"><g class="cls-10"><path class="cls-8" d="M44.53,42.9S53,32,48.65,26.83,22.29-3.12,13.15.33,3.91,10.59,4.71,18.56,35.9,53,44.53,42.9"/></g></g><g class="cls-6"><g class="cls-11"><path class="cls-8" d="M25.72,10.73s-9.21,2-12.46,8.73,1.27,18.18,4.44,19.21,27.15-7,22.94-16.83S35.24,8.27,25.72,10.73"/></g></g><g class="cls-6"><g class="cls-12"><path class="cls-8" d="M27.23,5.19s-11.51.22-13.81,5.93-3.56,14.6,5.4,15.16A52.67,52.67,0,0,1,37.7,31.37c2.94,1.35,14.6-2.62,11.19-10.08S35.08,5.57,27.23,5.19"/></g></g></g></g></g></g></svg>